# xmcd
#
# Track frame offsets: 
#        150
#        11515
#        24425
#        39346
#        57755
#        74550
#        92526
#        108764
#        124900
#        142452
#        158885
#        172224
#
# Disc length: 2520 seconds
#
# Revision: 0
# Processed by: cddbd v1.5PL3 Copyright (c) Steve Scherf et al.
# Submitted via: ExactAudioCopy v0.90b4
#
DISCID=a309d60c
DTITLE=Sestaa juudze - Emigrants
DYEAR=2004
DGENRE=Country
TTITLE0=Kad saldas ir liepas
TTITLE1=Alus un piektdiena
TTITLE2=Ievai 2003
TTITLE3=Klusaa daba
TTITLE4=It neko nevaru Tev soliit
TTITLE5=Naac atpakalj
TTITLE6=Pret veeju
TTITLE7=Lietus bluuzs
TTITLE8=Emigrants
TTITLE9=Gan jau 2003
TTITLE10=Mana mazaa karaljvalsts
TTITLE11=Es iemiileeshos Tevii...
EXTD=
EXTT0=
EXTT1=
EXTT2=
EXTT3=
EXTT4=
EXTT5=
EXTT6=
EXTT7=
EXTT8=
EXTT9=
EXTT10=
EXTT11=
PLAYORDER=
